<svg id="Logo" xmlns="http://www.w3.org/2000/svg" viewBox="0 0 208.06 208.06"><defs><style>.cls-1{fill:#fff;}</style></defs><path class="cls-1" d="M256,170.71c27.78,0,31.07.11,42,.61,10.14.46,15.65,2.16,19.31,3.58a34.47,34.47,0,0,1,19.75,19.75c1.42,3.66,3.12,9.17,3.58,19.31.5,11,.61,14.26.61,42s-.11,31.07-.61,42c-.46,10.14-2.16,15.65-3.58,19.31a34.47,34.47,0,0,1-19.75,19.75c-3.66,1.42-9.17,3.12-19.31,3.58-11,.5-14.26.61-42,.61s-31.07-.11-42-.61c-10.14-.46-15.65-2.16-19.31-3.58a34.47,34.47,0,0,1-19.75-19.75c-1.42-3.66-3.12-9.17-3.58-19.31-.5-11-.61-14.26-.61-42s.11-31.07.61-42c.46-10.14,2.16-15.65,3.58-19.31a34.47,34.47,0,0,1,19.75-19.75c3.66-1.42,9.17-3.12,19.31-3.58,11-.5,14.26-.61,42-.61M256,152c-28.25,0-31.8.12-42.89.63s-18.64,2.26-25.25,4.83a53.19,53.19,0,0,0-30.43,30.43c-2.57,6.61-4.33,14.18-4.83,25.25S152,227.75,152,256s.12,31.8.63,42.89,2.26,18.64,4.83,25.25a53.19,53.19,0,0,0,30.43,30.43c6.61,2.57,14.18,4.33,25.25,4.83s14.64.63,42.89.63,31.8-.12,42.89-.63,18.64-2.26,25.25-4.83a53.19,53.19,0,0,0,30.43-30.43c2.57-6.61,4.33-14.18,4.83-25.25S360,284.25,360,256s-.12-31.8-.63-42.89-2.26-18.64-4.83-25.25a53.19,53.19,0,0,0-30.43-30.43c-6.61-2.57-14.18-4.33-25.25-4.83S284.25,152,256,152Z" transform="translate(-151.97 -151.97)"/><path class="cls-1" d="M256,202.58A53.42,53.42,0,1,0,309.42,256,53.42,53.42,0,0,0,256,202.58Zm0,88.1A34.68,34.68,0,1,1,290.68,256,34.68,34.68,0,0,1,256,290.68Z" transform="translate(-151.97 -151.97)"/><circle class="cls-1" cx="159.56" cy="48.5" r="12.48"/></svg>