<svg xmlns="http://www.w3.org/2000/svg" width="197" height="50" viewBox="0 0 197 50"><g><g><g><text dominant-baseline="text-before-edge" style="line-height:20.997900009155273px;font-kerning:normal" fill="#fff" font-family="'GothamPro-Bold','GothamPro-Bold'" font-size="30" letter-spacing="-1.2" transform="translate(61 13)"><tspan font-family="Gotham Pro" font-style="none" font-weight="700">Crypterio</tspan></text></g></g><g><path fill="#fff" d="M25.006 44c10.493 0 19-8.507 19-19 0-10.494-8.507-19-19-19-10.494 0-19 8.506-19 19 0 10.493 8.506 19 19 19zm0-40a20.92 20.92 0 0 1 14.85 6.15A20.93 20.93 0 0 1 46.005 25a20.92 20.92 0 0 1-6.15 14.85 20.92 20.92 0 0 1-6.676 4.5A20.864 20.864 0 0 1 25.006 46a20.931 20.931 0 0 1-14.85-6.15A20.93 20.93 0 0 1 4.006 25a20.93 20.93 0 0 1 6.15-14.85A20.931 20.931 0 0 1 25.006 4zm0 46c3.375 0 6.65-.661 9.73-1.965a24.916 24.916 0 0 0 7.948-5.358A24.912 24.912 0 0 0 50.006 25a24.922 24.922 0 0 0-7.322-17.678A24.916 24.916 0 0 0 25.006 0c-3.375 0-6.65.66-9.73 1.965a24.916 24.916 0 0 0-7.948 5.357A24.921 24.921 0 0 0 .006 25c0 3.375.66 6.65 1.965 9.731a24.912 24.912 0 0 0 5.357 7.946A24.916 24.916 0 0 0 25.006 50z"/></g><g><path fill="#1d1e20" d="M20.12 33.68c-1.49-.87-2.68-2.094-3.567-3.663a10.234 10.234 0 0 1-.886-2.066H13.48l-.825-1.958h2.624a11.152 11.152 0 0 1-.024-1.958h-3.426l-.825-1.956h4.583a9.722 9.722 0 0 1 .932-2.254 9.305 9.305 0 0 1 3.53-3.553c1.49-.85 3.15-1.274 4.98-1.274 1.86 0 3.489.387 4.89 1.162l.462-.83h1.989l1.92 6.942-2.608.746c-.869-1.651-1.687-2.825-2.453-3.517-1.066-.953-2.22-1.428-3.463-1.428-.907 0-1.755.25-2.545.749-.789.498-1.415 1.233-1.878 2.204-.158.331-.29.682-.393 1.053h2.1v1.956h-2.393a10.02 10.02 0 0 0 .11 1.958h2.283v1.958h-1.73c.242.57.548 1.107.92 1.61 1.06 1.43 2.451 2.147 4.171 2.147 1.094 0 2.145-.31 3.155-.93 1.26-.766 2.35-1.797 3.266-3.09l2.172 1.594c-1.41 1.903-2.699 3.229-3.866 3.977-1.803 1.155-3.81 1.732-6.024 1.732-1.84 0-3.504-.436-4.994-1.31z"/></g></g></svg>