<svg id="Logo" xmlns="http://www.w3.org/2000/svg" viewBox="0 0 246.57 187.94"><defs><style>.cls-1{fill:#fff;}</style></defs><path class="cls-1" d="M341.45,177.61A203.33,203.33,0,0,0,291.26,162a.77.77,0,0,0-.81.38,141.71,141.71,0,0,0-6.25,12.84,187.54,187.54,0,0,0-56.37,0,131.79,131.79,0,0,0-6.34-12.84.8.8,0,0,0-.81-.38,202.75,202.75,0,0,0-50.19,15.57.69.69,0,0,0-.33.28c-32,47.76-40.72,94.34-36.43,140.35a.85.85,0,0,0,.32.57,204.63,204.63,0,0,0,61.57,31.13.82.82,0,0,0,.87-.29,145.54,145.54,0,0,0,12.59-20.48.78.78,0,0,0-.42-1.09,134.74,134.74,0,0,1-19.24-9.17.8.8,0,0,1-.08-1.31c1.3-1,2.59-2,3.82-3a.76.76,0,0,1,.8-.11c40.35,18.42,84,18.42,123.92,0a.75.75,0,0,1,.81.1c1.23,1,2.52,2,3.83,3a.8.8,0,0,1-.07,1.31,126.25,126.25,0,0,1-19.25,9.16.79.79,0,0,0-.41,1.1,163.86,163.86,0,0,0,12.58,20.47.8.8,0,0,0,.87.3,204,204,0,0,0,61.66-31.13.76.76,0,0,0,.32-.56c5.15-53.19-8.61-99.39-36.45-140.35A.64.64,0,0,0,341.45,177.61ZM215.11,290.22C203,290.22,193,279.07,193,265.37s9.82-24.85,22.16-24.85,22.35,11.25,22.16,24.85C237.27,279.07,227.45,290.22,215.11,290.22Zm81.93,0c-12.15,0-22.16-11.15-22.16-24.85s9.82-24.85,22.16-24.85,22.36,11.25,22.16,24.85C319.2,279.07,309.48,290.22,297,290.22Z" transform="translate(-132.71 -162.03)"/></svg>