<svg width="191" height="123" viewBox="0 0 191 123" fill="none" xmlns="http://www.w3.org/2000/svg">
<path d="M140.707 0.559331C141.644 0.660639 142.572 0.155707 143.478 0.588276C143.549 0.662247 143.687 0.808581 143.756 0.880944C146.235 0.911497 148.673 0.330986 151.167 0.577019C151.508 0.774811 151.348 1.20256 151.394 1.52417C149.444 1.27974 147.686 2.23333 145.772 2.33946V2.83153C147.561 2.51956 149.388 2.6868 151.199 2.65464C151.715 2.72057 151.545 3.39756 151.507 3.76099C150.883 6.24223 151.51 8.83282 151.061 11.3301C151.139 14.0092 150.894 16.7155 151.229 19.3721C151.219 21.8919 151.224 24.4134 151.229 26.9348C150.912 28.7889 151.131 30.688 151.062 32.5646C150.6 35.3932 151.152 38.2475 151.054 41.0874C150.448 43.255 150.868 45.5465 150.745 47.7721C150.583 47.9216 150.422 48.0728 150.264 48.2224C150.265 56.4572 150.26 64.6905 150.267 72.9254C150.23 73.8436 149.791 74.7409 150.102 75.6511C150.039 78.6534 150.262 81.6813 149.938 84.6611C149.951 89.6782 149.938 94.6938 149.944 99.7094C149.63 100.029 149.309 100.349 148.912 100.56C147.733 99.7672 146.373 100.611 145.127 100.584C143.937 100.261 142.686 100.583 141.499 100.234C141.427 100.16 141.284 100.01 141.214 99.9345C140.893 99.9361 140.574 99.9377 140.258 99.9457C139.179 101.091 137.657 100.605 136.311 100.386C136.37 99.1674 136.167 97.9228 136.457 96.728C136.577 95.7985 136.181 94.9044 136.141 93.9862C136.249 93.3848 136.438 92.7641 136.218 92.1611C135.838 87.9721 136.043 83.7332 135.984 79.5153C135.881 78.6566 136.542 77.9619 136.608 77.1305C136.502 76.6401 136.285 76.1673 136.308 75.6591C136.317 73.4046 136.303 71.1501 136.314 68.8972C136.686 67.3149 136.255 65.6634 136.629 64.0827C136.638 60.3279 136.624 56.5714 136.635 52.8166C136.925 51.4674 136.741 50.0765 136.792 48.7048C136.951 48.5552 137.111 48.4041 137.273 48.2545C137.259 46.6127 137.301 44.9692 137.256 43.329C137.071 42.5893 137.03 41.8062 137.232 41.0665C137.374 40.0598 137.127 39.0226 137.416 38.0337C137.471 34.9221 137.397 31.8056 137.451 28.694C137.756 27.6665 137.461 26.5826 137.661 25.5422C138.021 23.791 137.519 22.0672 137.277 20.3433C137.265 15.7298 137.28 11.1163 137.27 6.50434C137.033 5.51699 137.127 4.5007 137.11 3.49566C137.58 3.31234 138.008 2.91193 137.56 2.43594C138.127 1.68658 139.148 1.85865 139.924 1.48397C140.126 1.13019 140.42 0.845566 140.709 0.559331H140.707ZM143.778 2.66107C143.945 3.48762 144.742 2.87494 145.29 2.94891V2.65142C144.785 2.64981 144.282 2.64499 143.778 2.66107Z" fill="white"/>
<path d="M69.812 19.1196C70.306 19.0006 70.8192 19.0601 71.3227 19.0505C71.605 19.8561 71.6788 20.7357 72.1647 21.4626C72.4069 21.7568 72.3363 22.1138 72.038 22.3357C71.5922 23.9502 71.7189 25.6371 72.1294 27.2548C71.953 27.7244 72.0252 28.2406 71.8744 28.7182C71.5617 29.4289 72.8206 30.1107 72.0396 30.6977C71.8295 31.4406 71.5617 32.2012 71.6964 32.9843C72.2609 33.5842 73.3515 32.8219 73.924 33.425C73.576 35.6811 73.847 38.0015 73.7668 40.2834C74.1004 41.6341 73.7845 43.038 73.9898 44.4C74.2399 45.167 73.9946 45.9486 73.9112 46.714C74.5575 48.597 74.1165 50.6731 74.2448 52.6478C72.8607 52.7796 71.4478 52.8809 70.1247 53.344C69.9997 53.4582 69.8762 53.574 69.7543 53.6898C69.6324 56.0585 70.4936 58.3242 70.5946 60.6849C71.1207 63.2047 71.2778 65.7824 71.7926 68.2974C72.4598 71.2145 72.6442 74.1958 73.22 77.1611C73.4493 78.0761 72.9553 79.1824 73.7219 79.9221C74.5783 82.4355 74.2512 85.1451 74.8846 87.7116C74.7066 89.1347 75.361 90.4759 75.2022 91.8974C75.1396 92.412 75.3513 92.8815 75.5037 93.3591C75.563 93.9734 75.4219 94.6311 75.7875 95.1778C75.9126 95.8645 75.7587 96.6026 76.1067 97.2538C76.1067 98.2444 76.7514 99.4666 75.8164 100.238C75.5534 100.258 75.2936 100.301 75.045 100.391C73.8935 100.06 72.702 100.602 71.5136 100.428C70.391 100.856 69.217 100.957 68.0319 101.071C67.8795 101.255 67.732 101.444 67.5972 101.642C69.209 102.035 70.9507 101.906 72.5849 101.756C72.742 101.843 72.8992 101.93 73.0564 102.027C72.022 101.798 71.1495 102.45 70.1408 102.35C70.067 102.43 69.9211 102.593 69.8489 102.673C69.6244 102.671 69.3999 102.671 69.1769 102.673C69.1032 102.589 68.9588 102.422 68.8851 102.34C68.3767 102.289 67.8891 102.401 67.4738 102.705C67.3326 102.57 67.1931 102.433 67.0552 102.3C67.0263 101.991 66.9493 101.694 66.8499 101.404C65.53 101.014 64.1091 101.321 62.7475 101.226C62.6914 101.153 62.5808 101.01 62.5246 100.938C62.9769 99.9522 62.5102 98.8651 62.3995 97.8521C62.4108 96.437 61.7853 95.1023 61.8719 93.6807C61.4982 92.9201 61.5929 92.0839 61.5512 91.2686C61.2497 90.5997 61.216 89.8809 61.2545 89.1589C60.6483 86.3914 60.4205 83.5274 59.9073 80.7246C59.5962 77.502 58.9435 74.3068 58.6019 71.0906C58.1544 69.399 58.3725 67.6301 58.0101 65.932C57.861 65.7342 57.7134 65.5348 57.6076 65.3113C57.4744 62.1144 56.2957 59.0913 56.2412 55.8928C56.1514 54.3989 55.659 52.9613 55.8017 51.4465C56.2219 51.1507 56.5314 50.3418 57.1409 50.6634C57.8048 50.9561 58.3613 50.3788 58.7622 49.9269C59.1568 49.9253 59.5513 49.9269 59.9474 49.9333C60.2393 49.5458 60.39 49.0859 60.1735 48.6244C60.0725 47.1048 60.1607 45.5739 60.1318 44.0494C60.366 43.8195 60.5969 43.5879 60.8263 43.3548C60.5488 42.9447 60.2505 42.5491 59.8127 42.3015C59.9683 41.6872 60.042 41.06 59.8271 40.4458C59.7999 38.7476 59.7983 37.0463 59.8271 35.3498C60.8279 34.7709 62.1157 35.0395 63.2447 34.9655C63.8782 34.4509 64.7458 34.2129 65.5493 34.1582C65.6343 33.9122 65.7193 33.6646 65.793 33.4137C64.0065 32.8268 62.1237 33.507 60.2922 33.3639C58.0021 33.2481 55.7552 33.6276 53.4667 33.5247C53.3352 33.6549 53.2053 33.7868 53.0754 33.917C53.0722 37.1653 53.0802 40.4136 53.0722 43.6603C52.7049 45.1879 53.1235 46.7848 52.7578 48.3124C52.753 54.534 52.753 60.7556 52.7578 66.9772C53.0738 68.6448 52.8461 70.359 52.915 72.0491C52.8412 72.1198 52.6953 72.2645 52.6215 72.3353C52.2591 73.3323 52.6199 74.3277 52.7498 75.3295C52.7579 84.8203 52.7546 94.3111 52.753 103.802C52.6296 104.389 52.5189 104.976 52.7386 105.56C52.7803 110.117 52.737 114.677 52.7595 119.236C52.7915 119.831 52.5205 120.392 52.5959 120.992C51.7379 121.356 50.8767 121.698 49.9385 121.741C49.1847 121.426 48.3861 121.285 47.6275 120.997C46.638 120.846 46.0735 121.914 45.2315 122.131C44.6237 121.832 44.0912 121.375 43.5139 121.013C43.145 121.002 42.7746 121.002 42.4057 121.002C42.1122 120.669 41.7754 120.379 41.3825 120.174C40.7298 120.801 39.8766 120.309 39.2463 119.913C38.7283 119.366 39.0379 118.596 39.1196 117.953C39.1277 107.874 39.1164 97.7909 39.1261 87.7116C39.4885 85.7015 39.4853 83.6544 39.426 81.6122C39.3618 81.4241 39.2704 81.2488 39.1902 81.0703C39.4035 77.0855 39.2287 73.0621 39.2784 69.0629C39.458 67.101 39.5911 65.0636 39.3105 63.113C39.628 62.3685 39.4051 61.5741 39.1293 60.8714C39.1164 53.1479 39.1229 45.4243 39.1261 37.7008C39.4725 36.4369 39.0828 35.1038 39.4372 33.8447C39.5254 33.478 39.2512 33.1773 39.0988 32.875C38.135 32.9425 37.1855 32.8428 36.2361 32.6981C36.249 28.5975 36.2121 24.4954 36.2538 20.3964C36.7718 19.9269 37.6218 20.2822 38.2761 20.1842C38.4878 19.9285 38.6722 19.6535 38.847 19.3721C46.6925 19.3769 54.5364 19.3721 62.3819 19.3753C62.8133 19.3753 63.2142 19.6069 63.644 19.6053C65.5797 18.7594 67.7801 19.5039 69.812 19.1196Z" fill="white"/>
<path d="M86.1814 20.6457C86.4749 20.3932 86.8117 20.1198 87.2286 20.1761C89.1018 20.2018 91.0231 20.0507 92.8353 20.5331C93.1994 23.3392 92.9187 26.1951 93.0117 29.0253C92.2483 32.3717 93.039 35.9142 92.5242 39.3105C92.598 42.7952 92.367 46.3039 92.6926 49.7661C92.614 53.3553 92.8529 56.9718 92.5226 60.5401C92.4616 64.2918 92.691 68.0691 92.3622 71.7966C92.3766 76.1384 92.3574 80.4801 92.3718 84.8219C92.0431 87.9078 92.2724 91.0435 92.2099 94.1519C91.8971 96.043 92.1008 97.9791 92.0511 99.8911C91.7688 100.118 91.4705 100.324 91.1851 100.547C89.9694 99.8734 88.6431 100.51 87.3906 100.586C86.1333 100.209 84.7573 100.695 83.5497 100.094C82.7286 99.6322 81.8449 100.248 81.2018 100.743C80.3181 100.713 79.4457 100.521 78.5733 100.388C78.5652 99.7496 78.6438 99.0951 78.453 98.476C78.2573 97.6671 78.7849 96.8985 78.7176 96.096C78.0729 94.5378 78.631 92.8059 78.3439 91.1834C78.5348 90.508 78.1322 89.8519 78.2509 89.1637C78.3888 86.906 77.9141 84.6804 78.1354 82.4259C78.5332 80.8693 77.8339 79.1374 78.6759 77.6837C78.9453 76.5709 78.2349 75.4951 78.4081 74.3679C78.7208 72.5669 78.5219 70.724 78.57 68.9021C78.9229 66.0301 78.6342 63.1066 78.7529 60.2137C79.0897 58.8999 78.7032 57.5186 79.0528 56.2032C79.0608 49.4477 79.0528 42.6922 79.056 35.9368C79.0656 35.2871 78.9886 34.6246 79.1747 33.991C79.3222 32.6627 79.0592 31.3039 79.3719 29.9917C79.2629 29.0784 79.7616 28.1795 79.3463 27.2998C79.2741 27.2307 79.1281 27.0924 79.0544 27.0233C79.0576 25.2512 79.0544 23.4791 79.056 21.7086C79.2468 21.5928 79.4361 21.4706 79.6221 21.3452C80.1561 21.3114 80.5908 20.903 81.1408 20.9818C82.2827 21.0686 83.2883 20.1536 84.4429 20.5604C84.807 20.7615 85.2047 20.8628 85.6249 20.8354C85.6281 20.9367 85.6345 21.1394 85.6377 21.2391C85.766 21.3677 85.8927 21.4963 86.021 21.625C86.5487 21.6411 87.0939 21.6652 87.5815 21.4224C87.7659 20.5058 86.7812 20.6296 86.1814 20.6457Z" fill="white"/>
<path d="M100.544 20.1777C104.127 20.1761 107.712 20.1825 111.294 20.1745C113.036 20.427 114.839 20.427 116.582 20.1745C118.806 20.1793 121.031 20.1793 123.255 20.1745C123.329 20.2597 123.475 20.4302 123.549 20.5154C125.006 20.4141 126.447 20.0603 127.919 20.1922C128.132 20.4173 128.18 20.7389 128.313 21.0107C128.254 21.0847 128.138 21.231 128.079 21.3034C126.264 21.4835 124.467 20.9432 122.679 21.3066C121.876 21.3066 121.074 21.2985 120.272 21.3034V21.625C123.005 21.5012 125.696 21.8887 128.429 21.7793C129.016 23.143 129.136 24.7205 129.093 26.2192C129.019 26.29 128.873 26.4331 128.799 26.5054C128.769 26.7595 128.721 27.0136 128.639 27.2564C128.876 28.3242 128.196 29.4321 128.451 30.5642C128.531 30.6382 128.693 30.7845 128.774 30.8569C128.77 31.3489 128.77 31.8394 128.774 32.3315C128.695 32.4038 128.541 32.5486 128.464 32.6209C128.432 33.5021 128.025 34.3673 127.502 35.0652C127.497 35.1617 127.487 35.3562 127.483 35.4527C127.948 35.5283 128.579 35.2501 128.915 35.673C128.982 38.6222 128.842 41.5232 128.934 44.4579C128.948 45.2876 127.901 44.7393 127.444 45.0512C126.39 45.6687 125.202 44.7682 124.105 45.2233C122.564 45.2265 121.008 45.672 119.477 45.2812C117.924 45.2362 116.372 45.278 114.819 45.2635C114.818 44.0559 114.819 42.8482 114.819 41.6405C114.948 41.5071 115.079 41.3752 115.209 41.2434C115.079 41.1099 114.948 40.978 114.819 40.8462C114.744 38.7766 114.834 36.7006 115.487 34.7307C115.344 34.5988 115.204 34.4654 115.066 34.3303C113.726 34.2563 112.395 34.0859 111.041 34.1679C110.909 34.2981 110.78 34.43 110.65 34.5602C110.646 44.2939 110.654 54.0259 110.646 63.7595C110.595 64.43 111.084 65.0041 110.975 65.6843C110.895 68.7396 111.136 71.8191 110.805 74.8519C110.818 77.7464 110.802 80.6425 110.813 83.5387C110.711 84.7463 110.319 86.1437 110.994 87.242C112.504 87.2726 114 87.5009 115.522 87.3868C115.706 87.2404 115.899 87.107 116.101 86.9864C116.078 86.1823 116.17 85.3703 116.032 84.5743C116.229 83.3055 115.584 81.9515 116.163 80.7117C116.499 80.1794 115.884 79.734 115.939 79.2001C115.945 75.3375 115.939 71.4734 115.944 67.6108C115.95 67.3889 115.879 67.1782 115.811 66.974C115.889 66.7376 115.937 66.4932 115.969 66.2488C115.825 66.1153 115.685 65.9818 115.547 65.8467C114.834 65.8467 114.122 65.8419 113.41 65.8516C113.1 65.0652 113.164 64.1904 112.945 63.3912C112.308 62.2318 113.164 61.0032 113.065 59.8004C112.977 59.7264 112.803 59.5801 112.715 59.5061C112.638 58.5252 113.552 57.8145 113.544 56.8416C113.233 55.5262 113.429 54.1609 113.376 52.8214C115.464 52.786 117.565 52.9356 119.632 52.6494C121.954 53.0096 124.33 52.704 126.673 52.8584C128.345 53.3135 130.13 53.2202 131.805 52.8488C132.501 53.7573 132.826 54.9022 132.797 56.0424C132.929 56.9702 133.412 57.7936 133.687 58.6796C133.359 59.7441 132.926 60.7797 133.107 61.9214L132.786 62.2045C132.783 62.2961 132.778 62.4778 132.776 62.5695C132.704 62.637 132.56 62.7721 132.489 62.8397C132.188 63.7402 132.254 64.7147 132.461 65.6264C131.883 66.104 130.992 65.7326 130.286 65.8467C130.154 65.977 130.024 66.1088 129.895 66.2391C129.896 71.8464 129.891 77.4521 129.896 83.0595C129.309 85.0052 129.527 87.1648 129.896 89.1621C129.532 90.2346 129.332 91.4986 129.872 92.5503C129.915 93.9348 129.901 95.3274 129.88 96.7151C129.625 97.8585 128.257 97.7797 127.553 98.4824C126.605 98.7011 125.579 98.0868 124.724 98.6127C124.233 99.473 124.168 100.544 123.589 101.37C120.979 101.493 118.394 101.258 115.796 101.182C115.382 100.994 114.967 101.096 114.595 101.324C110.282 101.617 105.984 101.068 101.675 101.063C101.669 100.878 101.664 100.693 101.661 100.51C101.419 100.208 101.202 99.8879 100.968 99.5807C99.7282 99.8943 98.4003 99.8895 97.2039 99.4119C97.0066 97.9855 96.7051 96.535 97.0275 95.1103C96.6153 93.4266 97.0916 91.6594 96.7003 89.9725C96.71 87.7228 96.6634 85.4699 96.7228 83.2235C97.1093 82.3551 97.3547 81.3517 96.8816 80.4656C96.8222 69.7527 96.8816 59.0334 96.8527 48.3172C96.8046 47.7512 97.0275 47.2237 97.1526 46.6834C97.0852 46.0997 96.8559 45.5385 96.8543 44.9451C96.8607 37.7233 96.8575 30.4999 96.8559 23.2781C97.1029 23.1189 97.3482 22.9581 97.5808 22.7763C97.6594 22.7635 97.8165 22.7361 97.8967 22.7233C98.3987 22.2859 99.0658 22.1315 99.6737 21.9016C99.9688 21.6909 100.269 21.4867 100.551 21.2583C100.546 20.8981 100.544 20.5379 100.544 20.1777ZM125.404 34.9735V35.271C125.983 35.1906 126.878 35.8563 127.077 34.9832C126.517 34.9655 125.961 34.9719 125.404 34.9735Z" fill="white"/>
<path d="M6.89251 20.3064C7.25976 20.39 7.62542 20.517 8.00711 20.5025C12.3709 20.4929 16.7331 20.5025 21.0968 20.4977C21.169 20.5797 21.3149 20.7438 21.3871 20.8274C21.9917 20.9287 22.5274 20.6843 23.0774 20.5042C25.2136 20.5476 27.3707 20.3578 29.4844 20.6666C30.1275 22.3132 30.3408 24.1384 29.9607 25.888C30.2045 26.1147 30.4434 26.3479 30.6808 26.5826C31.311 26.5489 31.7649 27.1069 32.3872 27.0956C33.0559 27.1229 33.7022 27.422 34.1288 27.9447C34.1753 28.3579 34.3181 28.76 34.3149 29.1797C34.3052 37.8664 34.3181 46.5532 34.3084 55.2399C34.1449 56.0874 34.0374 56.975 34.2699 57.8225C34.4255 58.9883 34.1465 60.1896 34.4544 61.3377C34.4961 65.5203 34.4576 69.7045 34.4736 73.8871C34.5586 75.1237 34.055 76.357 34.4544 77.5808C34.4897 79.6488 34.5057 81.7634 34.3758 83.7976C34.4512 87.0137 34.6228 90.4131 34.3213 93.6695C34.5105 94.2805 34.7463 95.4753 33.7311 95.292C33.6092 95.4126 33.4873 95.5348 33.367 95.6586C33.351 96.1089 33.2323 96.5447 33.1634 96.9885C32.5572 97.8601 31.3816 97.9405 30.7385 98.7654C30.1259 99.2832 29.8324 100.044 29.3609 100.671C29.3513 100.769 29.3336 100.965 29.324 101.065C28.5767 101.087 27.8101 100.975 27.0788 101.182C25.8439 101.416 24.6363 100.949 23.4014 101.067C22.1922 101.297 20.922 101.317 19.7176 101.052C19.1836 101.176 18.6527 101.288 18.1219 101.079C15.3089 101.041 12.4928 101.075 9.67981 101.063C9.5932 100.888 9.5066 100.713 9.41679 100.542C8.8202 100.517 8.3022 101.16 7.73768 100.714C7.26137 100.031 7.29184 99.1771 6.86685 98.484C6.51403 98.4888 6.16281 98.4888 5.80998 98.4856C5.5582 98.804 5.33047 99.1401 5.07868 99.4601C4.84132 99.4569 4.60397 99.4569 4.36662 99.4601C3.45088 98.2171 2.60411 96.8293 2.42128 95.2711C2.48383 95.0733 2.54156 94.8771 2.59609 94.6793C2.66665 94.6102 2.80778 94.4703 2.87835 94.3995C2.87835 94.176 2.87995 93.9525 2.87995 93.7322C2.80137 93.6614 2.64581 93.5199 2.56722 93.4492C2.5592 93.3639 2.54637 93.1919 2.53835 93.1066C2.20317 92.7448 2.04601 92.2174 1.59856 91.9697C1.76856 88.0782 1.2698 84.2478 1.11423 80.3869C1.19121 80.3145 1.34678 80.1698 1.42376 80.0958C1.27782 79.4156 2.0412 78.8415 1.64988 78.1838C0.965086 77.0389 1.74771 75.7315 1.31631 74.5158C1.21687 73.3403 1.35961 72.1471 1.11103 70.9909C1.4847 70.0213 1.56168 68.9535 1.29225 67.942C1.17999 61.0306 1.50715 54.14 1.04688 47.2527C0.910559 45.0046 0.745374 42.644 1.40932 40.4667C0.78226 39.0065 1.62903 37.4451 1.13188 35.9416C1.16876 33.1066 0.94103 30.2426 1.30027 27.4269C1.32593 27.1567 1.49753 26.8994 1.7862 26.8737C1.73488 26.8255 1.63224 26.729 1.58092 26.6823C1.71564 26.5553 1.84875 26.4267 1.98025 26.298C2.07006 26.2932 2.24808 26.2835 2.33628 26.2787C3.5022 25.0469 4.71142 23.6849 5.32245 22.1106C5.21339 22.1106 4.99528 22.1106 4.88783 22.1106C4.31369 22.9983 3.64173 23.8875 2.69713 24.4021C2.79656 22.9323 3.82295 21.5751 5.17971 21.022C5.74904 21.3725 6.35525 21.3018 6.8877 20.9222C6.8893 20.7164 6.8893 20.5122 6.89251 20.308V20.3064ZM17.9343 33.8302C17.1613 33.8302 15.8686 33.2207 15.4805 34.1566C17.0346 34.1823 18.5902 34.1598 20.1442 34.1695C20.2276 33.9685 20.3142 33.7691 20.3976 33.5697C19.5957 33.1275 18.7008 33.5037 17.9343 33.8302ZM15.7548 34.9671C15.519 35.2614 15.3073 35.5733 15.0716 35.8676C15.0555 41.0118 15.078 46.156 15.0604 51.3018C15.0058 51.1973 14.8936 50.9898 14.8374 50.8853C14.5359 50.9175 14.1414 50.7824 13.9618 51.1104C13.9153 52.347 13.9554 53.5885 13.9474 54.8267C14.1735 55.047 14.3788 55.2898 14.5279 55.5712C14.499 56.3592 14.754 57.1198 14.754 57.9045C14.8326 57.9769 14.9898 58.1216 15.0684 58.1956C15.0652 67.7443 15.0684 77.2929 15.0668 86.8416C15.1983 86.9703 15.3282 87.1021 15.4581 87.234C16.4492 87.2742 17.4595 87.1198 18.4298 87.3771C19.3038 87.4768 20.59 87.5251 20.8242 86.4235C20.8675 84.6563 20.821 82.889 20.845 81.1217C20.4762 78.2594 20.813 75.3375 20.6382 72.4559C20.4585 71.7644 20.4585 71.0247 20.6382 70.3332C20.8948 67.9565 20.2485 65.5846 20.6125 63.2143C20.9749 62.0951 20.1651 61.0065 20.5163 59.9033C20.5275 56.5779 20.5115 53.2524 20.5243 49.9269C20.1907 46.1656 20.4329 42.3561 20.3575 38.5724C20.5227 38.4196 20.6895 38.2668 20.8563 38.1173C20.8948 37.6751 20.7183 37.2811 20.5403 36.8919C20.465 36.26 20.6333 35.5894 20.3383 34.9944C20.133 34.9317 19.9373 34.8207 19.7208 34.8143C18.4266 35.1343 17.073 34.906 15.7548 34.9671ZM4.47086 95.1248C4.11804 95.5734 4.59595 96.0317 4.7002 96.4836C4.89585 96.7569 5.05623 97.056 5.19575 97.3648C5.28075 97.3648 5.45235 97.3664 5.53735 97.368C5.60952 97.2876 5.75225 97.1268 5.82442 97.0464C5.93668 97.0432 6.16441 97.0351 6.27667 97.0319C6.23979 96.6685 6.14998 96.3163 6.05696 95.9658C5.82923 95.7423 5.60471 95.5139 5.38018 95.2888C5.07066 95.2807 4.75312 95.2663 4.47086 95.1248Z" fill="white"/>
<path d="M181.79 21.2953C182.948 21.5172 183.944 20.7807 185.06 20.6521C185.94 20.562 186.71 21.067 187.381 21.5751C188.033 22.0527 188.944 21.7488 189.538 22.1653C189.329 23.418 190.173 24.6015 189.744 25.8285C189.573 26.2063 190.076 26.3189 190.352 26.3221C190.359 25.2029 190.352 24.0837 190.355 22.9645L190.676 22.6943C190.756 22.7619 190.917 22.8969 190.997 22.9661V36.9836C190.487 36.3854 190.214 35.6135 190.23 34.8352C190.716 32.7898 189.898 30.7556 190.035 28.7005C190.032 28.0363 190.041 27.3722 190.025 26.7081C189.708 26.7724 189.557 27.1101 189.558 27.4076C189.546 31.5516 189.456 35.702 190.048 39.7961C189.943 40.5438 189.736 41.3029 190.027 42.0442C189.833 42.8836 189.618 43.731 189.547 44.5913C189.566 45.003 190.06 44.9451 190.354 44.9596C190.232 43.0621 190.607 41.2064 190.511 39.3105C190.49 38.9294 190.535 38.389 190.987 38.2861C191 39.3265 191.003 40.3686 190.994 41.4106C190.513 43.7905 191.244 46.3007 190.517 48.6421C190.517 49.0232 190.707 49.3769 190.679 49.7629C190.67 55.5005 190.683 61.2396 190.673 66.9772C190.487 67.8713 190.415 68.8072 190.659 69.7013C190.704 73.1313 190.659 76.5661 190.681 79.9977C190.346 83.7799 190.593 87.6119 190.513 91.4182C190.676 92.5326 190.806 93.692 190.558 94.808C190.405 96.4611 190.577 98.1125 190.678 99.7544C189.268 99.912 187.852 100.103 186.511 100.571C184.659 100.468 182.72 100.894 180.948 100.219C180.881 100.16 180.744 100.042 180.677 99.9843C180.153 99.8557 179.703 99.5325 179.179 99.4103L178.897 99.1337C178.727 99.1321 178.558 99.1321 178.392 99.1337C178.319 99.0533 178.174 98.8909 178.101 98.8105C177.877 98.8105 177.655 98.8105 177.436 98.8121L177.044 98.4197C177.046 96.2456 177.038 94.0699 177.049 91.8958C177.163 91.0178 176.316 90.1784 175.446 90.2845C175.146 90.3504 174.923 90.0819 174.961 89.7989C173.669 84.5485 172.581 79.25 170.973 74.035C170.989 70.6356 169.555 67.458 168.67 64.1985C168.607 64.258 168.482 64.3802 168.42 64.4397C168.219 63.5938 167.826 62.8059 167.712 61.9391C167.64 62.0067 167.494 62.1418 167.422 62.2077C167.42 62.8622 167.422 63.5183 167.42 64.1727C167.502 64.2467 167.664 64.3914 167.744 64.4654C167.754 65.1376 167.709 65.813 167.76 66.4851C169.024 68.9744 168.256 71.8577 168.708 74.5271C168.697 76.1142 168.752 77.7191 168.61 79.2869C168.532 81.3855 168.439 83.5322 168.659 85.6179C168.634 86.0247 168.745 86.4348 168.636 86.8384C168.735 88.1409 168.796 89.4821 168.569 90.775C168.989 91.8781 168.405 93.0182 168.543 94.1487C168.667 96.0944 168.286 97.9968 168.384 99.9393C166.53 99.6579 164.939 101.054 163.092 100.903C162.353 100.814 161.652 101.132 160.916 101.071C160.847 100.996 160.709 100.845 160.64 100.767C159.509 100.549 158.326 100.235 157.184 100.558C156.427 100.277 155.594 100.201 154.906 99.756C154.919 96.3324 154.913 92.9072 154.91 89.4837C155.24 87.3626 154.996 85.195 155.078 83.053C154.722 80.9272 155.142 78.737 154.611 76.6256C154.57 69.1722 154.597 61.714 154.597 54.259C154.963 53.1961 155.181 52.0126 154.914 50.8966C154.906 44.1395 154.919 37.3824 154.91 30.6253C154.698 29.1411 154.392 27.623 154.743 26.1308C155.001 24.9102 154.894 23.6624 154.913 22.4242C156.018 22.4499 157.274 22.913 158.127 21.9064C158.122 21.7038 158.12 21.5028 158.12 21.3034C160.253 21.4207 162.33 20.8354 164.466 20.9801C164.535 21.0541 164.673 21.2004 164.742 21.2744C165.451 21.514 166.229 21.5574 166.943 21.3034C167.934 20.9078 168.957 21.3998 169.961 21.4899C171.046 25.9764 171.985 30.6028 173.086 35.0893C173.914 39.7961 175.542 44.4305 176.093 49.2129C176.223 49.3528 176.355 49.4959 176.486 49.6391C176.703 49.6069 177.056 49.5474 177.04 49.2579C177.049 45.2908 177.128 41.3157 176.719 37.384C176.729 35.9062 176.724 34.4268 176.722 32.9474C176.802 32.875 176.964 32.7287 177.046 32.6547C177.126 31.6303 177.001 30.635 176.717 29.6653C177.417 27.0876 176.785 24.4536 176.902 21.8437C177.282 21.3966 177.976 21.7247 178.494 21.6282C179.607 21.6234 180.837 20.2163 181.79 21.2953ZM166.781 81.9016C166.675 83.1559 167.063 84.37 166.938 85.6259C166.987 86.1775 166.728 87.0619 167.412 87.2967C167.436 85.6243 167.411 83.9519 167.425 82.2812C167.209 82.1525 166.994 82.0271 166.781 81.9016Z" fill="white"/>
<path d="M73.1205 25.7497C73.2007 25.8172 73.3627 25.9539 73.4429 26.023C73.4076 27.6745 73.4381 29.3276 73.7524 30.9485C73.8326 31.3296 73.7219 31.7091 73.5712 32.0565C73.3002 32.0742 73.0339 32.1176 72.7854 32.2269C72.2064 31.3296 73.313 30.4066 72.7805 29.5254C72.2128 28.2309 73.4894 27.0843 73.1205 25.7497Z" fill="white"/>
<path d="M113.586 51.3967C116.343 50.8692 119.191 51.4739 121.972 51.5334C122.047 51.6958 122.128 51.8598 122.209 52.0222C119.35 52.2297 116.466 52.1798 113.588 52.1798C113.528 52.1042 113.408 51.9547 113.347 51.8791C113.427 51.7183 113.508 51.5575 113.586 51.3967Z" fill="white"/>
<path d="M144.376 107.205C145.221 106.804 146.104 107.404 146.982 107.103C147.903 107.185 148.811 107.357 149.722 107.521C149.847 107.64 149.972 107.761 150.102 107.883C150.1 108.113 150.102 108.343 150.103 108.575C149.848 108.735 149.596 108.903 149.366 109.097C148.738 109.112 148.041 109.022 147.494 109.387C146.657 110.979 147.212 112.854 147.058 114.576C147.431 115.628 146.962 116.657 146.875 117.71C147.293 118.093 147.69 118.501 148.086 118.911C148.771 118.807 149.731 118.972 149.786 119.829C148.24 121.064 146.214 119.813 144.493 120.347C143.953 120.534 143.403 120.037 142.904 120.339C142.638 120.108 142.469 119.804 142.649 119.464C142.606 119.299 142.567 119.133 142.532 118.969C142.801 118.805 143.069 118.638 143.303 118.424C143.783 118.395 144.24 118.553 144.665 118.762C144.885 118.636 145.104 118.512 145.327 118.387C145.032 117.318 145.334 116.216 145.38 115.124C145.254 114.69 145.023 114.241 145.167 113.782C145.501 112.731 145.063 111.585 145.432 110.549C145.3 109.761 144.872 109.205 144.23 108.763C143.773 108.842 143.321 108.957 142.858 108.964C142.883 108.716 142.915 108.472 142.959 108.229C142.917 107.986 142.885 107.74 142.859 107.497C143.271 107.494 143.683 107.494 144.099 107.496C144.168 107.423 144.306 107.277 144.376 107.205Z" fill="white"/>
<path d="M63.7371 107.949C64.6993 107.139 66.2004 107.098 67.2508 107.759C67.926 107.777 68.5386 108.079 69.201 108.166C69.3517 107.988 69.5057 107.814 69.6581 107.639C71.0036 108.465 70.6604 110.324 70.0606 111.525C69.8104 111.521 69.5618 111.519 69.3149 111.519C69.0647 111.242 68.8754 110.922 68.7375 110.578C68.0479 110.342 67.3375 110.128 66.7874 109.621C66.2662 109.639 65.8492 109.131 65.3312 109.34C65.1195 109.3 64.9062 109.268 64.6961 109.237C64.6239 109.324 64.4796 109.496 64.4074 109.583C64.316 109.586 64.1348 109.591 64.045 109.593C63.8637 109.777 63.6825 109.959 63.4997 110.141C63.4981 110.414 63.4997 110.691 63.5013 110.967C63.4195 111.041 63.2559 111.188 63.1741 111.26C63.1774 111.472 63.1806 111.686 63.187 111.902C63.3842 112.148 63.5574 112.411 63.7306 112.675C63.3602 113.251 63.0715 112.743 62.8053 112.389C61.811 112.072 61.665 110.871 61.5592 109.978C61.8655 109.953 61.9232 109.721 61.9184 109.457C62.2279 109.199 62.5615 108.973 62.8839 108.732C62.8309 108.676 62.7267 108.565 62.6738 108.51C62.9288 108.351 63.1838 108.19 63.4227 108.005C63.5013 107.991 63.6585 107.964 63.7371 107.949Z" fill="white"/>
<path d="M81.6155 107.838C82.2779 107.436 83.1134 107.126 83.8672 107.47C84.8615 106.967 85.8494 107.927 86.8582 107.59C87.4034 107.398 88.0209 107.626 88.5389 107.333C88.7073 107.425 88.8773 107.517 89.0473 107.611C89.8235 107.261 90.6157 107.312 91.3631 107.701C91.4898 107.828 91.6181 107.959 91.7464 108.091C91.3615 109.409 91.7047 111.029 90.821 112.204C90.3671 112.035 89.6856 111.839 90.0688 111.239C89.979 111.069 89.8908 110.9 89.8026 110.733C89.9085 110.504 89.9614 110.258 89.9774 110.007C89.7272 109.72 89.5156 109.403 89.2766 109.108C88.5822 109.271 87.4515 108.47 87.0795 109.29C87.1933 110.253 86.7571 111.185 86.956 112.141C87.2783 113.412 86.855 114.756 87.2286 116.022C87.3136 116.375 87.0474 116.67 86.9127 116.974C87.1276 117.422 87.2751 117.906 87.2447 118.413C87.721 118.816 88.3432 118.775 88.9286 118.752C89.1611 118.993 89.4001 119.233 89.6423 119.469C89.6391 119.625 89.6358 119.783 89.6326 119.944C89.4354 120.177 89.2702 120.434 89.1114 120.696C88.417 120.725 87.7466 120.362 87.0747 120.679C86.3001 120.585 85.5527 120.199 84.7717 120.54C84.2601 120.096 83.6844 119.738 83.176 119.296C83.6603 118.979 84.2858 118.311 84.8727 118.778C85.062 118.593 85.2512 118.406 85.4421 118.225C85.7708 117.384 85.5319 116.477 85.7003 115.612C85.7243 114.608 85.7965 113.571 85.8606 112.55C85.8622 111.471 85.4902 110.403 85.8189 109.35C85.5591 109.112 85.3106 108.864 85.0716 108.607C84.228 108.509 83.6026 109.117 83.0765 109.675C83.0717 109.757 83.0621 109.921 83.0557 110.003C82.8889 110.167 82.7237 110.334 82.5601 110.504C82.844 110.889 82.7109 111.36 82.666 111.794C82.6339 111.886 82.5714 112.067 82.5393 112.159C82.2923 112.159 82.047 112.162 81.8016 112.17C81.2996 111.495 81.4712 110.691 81.9652 110.072C82.0983 110.065 82.3645 110.051 82.4976 110.044C82.3003 109.634 81.9459 109.342 81.622 109.036C81.622 108.636 81.6204 108.237 81.6155 107.838Z" fill="white"/>
<path d="M105.907 107.335C106.945 107.219 107.943 107.539 108.94 107.758C110.167 108.497 110.821 109.818 111.431 111.059C111.729 112.273 111.293 113.507 111.615 114.73C111.23 116.073 110.831 117.416 110.284 118.704C109.569 119.812 108.275 120.008 107.206 120.588C106.389 120.908 105.588 120.397 104.777 120.336C104.709 120.268 104.573 120.137 104.506 120.071C104.215 119.998 103.928 119.915 103.641 119.846C103.362 119.564 103.083 119.284 102.799 119.014C102.796 118.923 102.79 118.741 102.787 118.649C102.71 118.582 102.556 118.443 102.48 118.374C102.472 118.289 102.458 118.117 102.451 118.032C102.099 117.593 101.824 117.097 101.473 116.66C101.523 116.589 101.622 116.446 101.672 116.375C101.269 115.433 101.473 114.439 101.55 113.462C101.742 112.5 101.786 111.439 102.414 110.635C102.52 110.123 102.865 109.732 103.186 109.342C103.823 108.652 104.432 107.837 105.474 107.782C105.619 107.632 105.761 107.483 105.907 107.335ZM104.924 109.485C104.64 109.906 104.288 110.26 103.84 110.506C103.285 110.493 103.2 111.004 103.263 111.447C103.037 111.672 102.811 111.898 102.589 112.128C102.711 112.342 102.831 112.559 102.953 112.776C102.841 113.014 102.787 113.27 102.762 113.532C102.94 113.687 103.118 113.843 103.298 114C103.261 114.163 103.226 114.328 103.189 114.494C103.357 115.494 103.367 116.636 104.187 117.364C104.855 118.438 105.984 119.236 107.274 119.231C107.705 119.09 108.007 118.718 108.401 118.504V118.144C108.595 117.995 108.793 117.85 108.999 117.718C109.327 117.022 109.843 116.353 109.687 115.536C109.551 114.838 109.856 114.198 110.391 113.761C110.262 113.629 110.135 113.499 110.008 113.37C110.007 113.042 110.007 112.715 110.01 112.389C109.936 112.32 109.79 112.182 109.718 112.111C109.62 111.722 109.415 111.313 109.646 110.929C109.524 110.577 109.208 110.395 108.934 110.181C108.161 108.76 106.204 108.924 104.924 109.485Z" fill="white"/>
<path d="M124.785 107.677C125.637 107.266 126.62 107.705 127.487 107.365C127.944 107.491 128.417 107.56 128.879 107.684C128.947 107.746 129.078 107.873 129.146 107.936C130.007 108.038 130.523 108.71 131.008 109.35C130.939 110.044 131.192 110.696 131.339 111.361C131.165 112.027 130.862 112.667 130.478 113.243C129.984 113.474 129.223 113.701 129.277 114.381C129.486 114.954 129.441 115.769 130.032 116.099C130.085 116.764 130.251 117.414 130.403 118.064C130.868 118.834 131.981 118.831 132.31 119.69C132.228 119.891 132.156 120.098 132.093 120.309C131.978 120.437 131.862 120.568 131.752 120.699C130.975 120.714 130.294 120.222 129.505 120.349C129.338 120.217 129.17 120.09 128.998 119.971C128.871 119.784 128.74 119.604 128.608 119.427C128.688 119.21 128.757 118.99 128.82 118.77C128.721 118.763 128.523 118.754 128.424 118.747C128.536 118.561 128.647 118.374 128.764 118.191C128.616 117.961 128.462 117.734 128.289 117.527C128.284 117.208 128.296 116.89 128.369 116.58C128.332 116.407 128.296 116.235 128.265 116.067C128.191 115.997 128.042 115.858 127.968 115.788C127.968 115.563 127.968 115.34 127.972 115.118C126.876 114.351 125.598 114.335 124.314 114.405C124.076 115.214 123.813 116.081 124.046 116.924C123.828 117.622 123.749 118.345 123.802 119.075C124.435 119.088 125.104 118.976 125.702 119.255C125.776 119.49 125.855 119.725 125.925 119.963C125.163 120.603 124.025 120.04 123.379 120.854C122.663 120.728 121.868 120.789 121.257 120.347C121.226 120.098 121.193 119.85 121.141 119.606C121.173 119.519 121.238 119.344 121.27 119.257C121.638 119.08 122.044 119.05 122.448 119.067C122.564 118.95 122.682 118.834 122.803 118.72C122.615 118.321 122.63 117.863 122.811 117.466C122.302 116.015 123.305 114.52 122.901 113.06C122.795 112.85 122.904 112.656 122.995 112.471C122.493 111.852 122.869 110.983 122.334 110.382C122.216 110.385 121.98 110.392 121.861 110.395C122.017 110.067 122.44 109.597 122.007 109.301C121.523 108.941 121.058 108.567 120.752 108.033C120.881 107.912 121.011 107.791 121.145 107.672C121.457 107.663 121.776 107.647 122.06 107.496C122.108 107.523 122.208 107.574 122.256 107.602C123.085 107.293 123.965 108.06 124.785 107.677ZM124.479 108.763C124.278 110.245 123.181 111.849 124.022 113.285C124.434 113.281 124.867 113.235 125.248 113.433C125.98 113.071 126.811 113.108 127.587 112.907C128.204 112.637 128.713 112.177 129.162 111.681C129.04 111.551 128.918 111.424 128.799 111.3C128.714 110.969 128.626 110.638 128.581 110.302C128.754 110.22 128.927 110.138 129.102 110.056C129.027 109.913 128.953 109.769 128.884 109.628C128.509 109.44 128.13 109.239 127.701 109.239C127.551 109.084 127.404 108.93 127.26 108.777C126.312 108.861 125.422 108.949 124.479 108.763Z" fill="white"/>
<path d="M182.173 108.496C183.243 107.687 184.603 107.065 185.965 107.391C186.792 107.885 187.77 107.901 188.68 108.166C188.821 107.996 188.97 107.828 189.117 107.661C189.243 107.729 189.369 107.798 189.499 107.867C189.637 108.171 189.799 108.467 190.025 108.719C190.121 109.686 189.995 110.659 189.539 111.525C189.287 111.521 189.04 111.517 188.795 111.519C188.51 111.144 188.248 110.752 187.915 110.421C187.307 110.305 186.691 110.105 186.277 109.621C185.73 109.66 185.259 109.038 184.742 109.409C183.982 109.017 183.277 109.842 182.792 110.345C183.042 110.646 183.02 111.02 182.706 111.263C182.634 111.484 182.558 111.702 182.483 111.921C182.913 112.001 183.001 112.421 183.132 112.772C182.946 112.838 182.765 112.908 182.585 112.979C182.374 112.411 181.809 112.148 181.368 111.794C181.37 111.615 181.371 111.435 181.378 111.258C181.296 111.186 181.132 111.041 181.049 110.967C181.049 110.644 181.054 110.321 181.06 109.999C181.389 109.581 181.65 109.065 182.175 108.861C182.175 108.769 182.175 108.587 182.173 108.496Z" fill="white"/>
<path d="M160.443 108.062C161.871 107.629 163.39 107.496 164.854 107.811C166.317 107.324 167.829 107.997 169.292 107.724C169.584 107.872 169.893 107.983 170.224 108.017C170.764 108.485 171.446 108.718 172.163 108.641C171.903 108.912 171.232 109.038 171.494 109.522C171.714 109.935 171.486 110.334 171.279 110.696C171.378 110.93 171.43 111.181 171.462 111.437C171.38 111.511 171.216 111.656 171.136 111.73C171.127 112.182 170.909 112.579 170.739 112.986C170.339 112.643 169.941 112.304 169.542 111.966C169.457 111.312 169.011 110.765 169.005 110.099C167.863 109.475 166.466 110.101 165.406 109.297C164.938 109.543 164.442 109.755 164.045 110.112C164.045 110.205 164.053 110.39 164.054 110.483C164.134 110.557 164.295 110.704 164.375 110.778C164.375 111.009 164.377 111.241 164.383 111.476C164.174 111.636 163.96 111.789 163.737 111.924L163.73 112.259C163.804 112.321 163.952 112.445 164.025 112.508C163.804 112.825 163.812 113.577 164.356 113.412C164.904 113.143 165.494 113.672 166.038 113.351C166.489 113.187 166.575 112.653 166.817 112.291C166.696 112.165 166.577 112.043 166.46 111.921C166.457 111.699 166.457 111.479 166.458 111.26C166.537 111.189 166.696 111.046 166.776 110.974C166.782 110.852 166.797 110.606 166.805 110.483C167.231 110.639 167.385 111.115 167.691 111.419C167.76 111.63 167.837 111.837 167.926 112.046C167.799 112.165 167.675 112.286 167.555 112.407C167.809 113.428 167.725 114.499 168.028 115.513C167.869 115.648 167.712 115.785 167.558 115.922C167.725 116.083 167.892 116.245 168.064 116.409V116.75C167.821 116.985 167.582 117.223 167.35 117.466H167.013C166.777 117.223 166.54 116.985 166.301 116.752C166.349 116.141 166.235 115.546 166.11 114.954C165.929 114.764 165.749 114.573 165.576 114.381C164.992 114.568 164.407 114.571 163.823 114.385C163.717 114.746 163.393 114.926 163.09 115.095C163.089 115.349 163.089 115.602 163.092 115.858H162.932C163.102 114.606 162.6 113.376 162.94 112.162C163.025 111.548 162.478 111.067 162.601 110.443C161.883 109.713 160.914 109.192 159.896 109.083C159.724 108.806 159.58 108.512 159.514 108.195C159.811 108.071 160.12 107.914 160.443 108.062Z" fill="white"/>
<path d="M63.7852 113.272C63.7611 112.193 64.9415 112.785 65.4322 113.154C65.429 113.267 65.4242 113.492 65.4226 113.605C65.1227 113.605 64.8244 113.606 64.5277 113.609C64.4555 113.529 64.3144 113.368 64.2438 113.288C64.1284 113.285 63.9006 113.275 63.7852 113.272Z" fill="white"/>
<path d="M183.36 112.611C183.913 112.656 184.439 112.857 184.912 113.146C184.909 113.262 184.903 113.497 184.9 113.613C184.255 113.72 183.703 113.388 183.108 113.224C183.19 113.018 183.275 112.813 183.36 112.611Z" fill="white"/>
<path d="M66.5468 113.645C67.2797 113.302 68.1281 113.626 68.8386 113.265C69.4544 113.529 69.6517 114.724 70.3477 114.465C70.4215 114.504 70.5706 114.581 70.646 114.619C70.824 114.928 71.0758 115.184 71.3276 115.438C71.3484 115.922 71.6002 116.351 71.6788 116.822C71.6002 117.284 71.3661 117.71 71.3179 118.183C70.9988 118.644 70.7695 119.169 70.3477 119.551C70.2579 119.556 70.0783 119.564 69.9884 119.569C69.1705 120.526 67.8458 120.627 66.7056 120.852C65.4851 120.505 64.0883 120.371 63.0763 119.542C62.7973 119.509 62.6481 119.664 62.6032 119.944C62.2312 119.715 62.09 119.21 62.4044 118.871C62.2825 118.749 62.1606 118.628 62.0403 118.511C62.0018 118.072 62.1798 117.681 62.3562 117.295C62.4926 116.729 62.0435 115.669 62.9448 115.658C63.2351 116.515 63.8189 117.205 64.2647 117.977C64.6159 118.477 65.2879 118.577 65.6664 119.058C66.6751 119.23 67.8025 119.402 68.5338 118.48C68.9829 118.361 69.3935 118.143 69.7912 117.908C69.6565 117.446 69.4544 116.933 69.7495 116.486C69.618 116.224 69.4881 115.959 69.3678 115.694C69.1898 115.695 69.0134 115.698 68.837 115.703C68.5515 115.325 68.2853 114.933 67.9549 114.594C67.7769 114.56 67.6021 114.526 67.4273 114.491C67.0696 114.687 66.7745 114.459 66.5404 114.196C66.542 114.011 66.5436 113.828 66.5468 113.645Z" fill="white"/>
<path d="M188.205 113.346C188.306 113.391 188.409 113.437 188.516 113.486C188.939 113.804 189.247 114.714 189.826 114.465C189.902 114.504 190.051 114.581 190.126 114.619C191.044 115.56 191.181 116.977 190.805 118.194C190.352 118.521 190.344 119.228 189.823 119.55C189.735 119.554 189.555 119.564 189.467 119.571C188.648 120.526 187.324 120.627 186.184 120.852C184.964 120.505 183.567 120.371 182.555 119.542C182.276 119.509 182.124 119.664 182.082 119.944C181.684 119.699 181.585 119.169 181.827 118.779C181.753 118.718 181.607 118.594 181.533 118.532C181.532 118.25 181.532 117.971 181.533 117.692C181.614 117.618 181.777 117.474 181.857 117.4C181.854 116.832 181.854 116.264 181.856 115.698C182.051 115.695 182.249 115.694 182.449 115.694C182.651 116.457 183.135 117.093 183.604 117.712C183.609 117.794 183.62 117.958 183.625 118.038C184.143 118.36 184.72 118.606 185.145 119.058C185.847 118.984 186.619 119.529 187.247 119.014C187.854 118.524 188.595 118.25 189.212 117.778C188.904 117.117 189.247 116.337 188.874 115.689C188.689 115.692 188.506 115.697 188.327 115.703C187.998 115.359 187.727 114.968 187.442 114.592C187.259 114.558 187.082 114.528 186.906 114.494C186.598 114.623 186.303 114.494 186.021 114.368C186.021 114.126 186.021 113.884 186.025 113.645C186.725 113.352 187.49 113.537 188.205 113.346Z" fill="white"/>
<path d="M169.866 115.821C170.969 115.788 171.459 117.038 171.099 117.948C171.382 118.9 171.297 119.903 170.928 120.823C169.763 121.484 168.591 120.402 167.446 120.64C167.159 120.476 166.907 120.26 166.686 120.019C166.178 120.002 165.778 120.341 165.326 120.511C164.803 120.347 164.242 120.412 163.729 120.223C162.728 120.809 162.744 119.169 163.146 118.638C163.488 118.04 163.825 118.886 163.945 119.21C164.335 119.416 164.803 119.485 165.194 119.234C165.504 119.397 165.817 119.556 166.126 119.723C166.901 119.278 167.813 119.45 168.647 119.207C168.769 119.087 168.894 118.966 169.021 118.849C168.955 118.294 169.075 117.728 169.525 117.359C169.491 117.138 169.454 116.919 169.404 116.703C169.55 116.404 169.703 116.11 169.866 115.821Z" fill="white"/>
<path d="M159.726 119.612C160.443 119.339 161.235 119.001 161.974 119.432C161.969 119.662 161.968 119.895 161.969 120.129C161.836 120.257 161.705 120.389 161.578 120.521C160.903 120.582 160.189 120.545 159.714 119.993C159.718 119.899 159.722 119.707 159.726 119.612Z" fill="white"/>
</svg>
