<svg id="Logo" xmlns="http://www.w3.org/2000/svg" viewBox="0 0 237 192.61"><defs><style>.cls-1{fill:#fff;}</style></defs><path class="cls-1" d="M374.5,182.5a97.25,97.25,0,0,1-27.93,7.65A48.72,48.72,0,0,0,368,163.25a97.36,97.36,0,0,1-30.87,11.8,48.67,48.67,0,0,0-82.86,44.35A138.07,138.07,0,0,1,154,168.6a48.68,48.68,0,0,0,15.05,64.91,48.46,48.46,0,0,1-22-6.08V228a48.66,48.66,0,0,0,39,47.68,48.49,48.49,0,0,1-22,.83,48.68,48.68,0,0,0,45.43,33.77,97.58,97.58,0,0,1-60.39,20.82,98.6,98.6,0,0,1-11.6-.68A137.69,137.69,0,0,0,212,352.3c89.43,0,138.34-74.09,138.34-138.34q0-3.17-.14-6.29A98.91,98.91,0,0,0,374.5,182.5Z" transform="translate(-137.5 -159.7)"/></svg>